<?xml version="1.0" standalone="no"?>
<!DOCTYPE svg PUBLIC "-//W3C//DTD SVG 20010904//EN"
 "http://www.w3.org/TR/2001/REC-SVG-20010904/DTD/svg10.dtd">
<svg version="1.0" xmlns="http://www.w3.org/2000/svg"
 width="672.000000pt" height="672.000000pt" viewBox="0 0 672.000000 672.000000"
 preserveAspectRatio="xMidYMid meet">
<metadata>
Created by potrace 1.14, written by Peter Selinger 2001-2017
</metadata>
<g transform="translate(0.000000,672.000000) scale(0.100000,-0.100000)"
fill="#000000" stroke="none">
<path d="M3350 6622 c-14 -2 -29 -8 -35 -12 -18 -14 -254 -150 -261 -150 -4 0
-15 -6 -23 -14 -9 -7 -41 -27 -71 -44 -30 -16 -95 -53 -145 -82 -49 -29 -110
-64 -135 -78 -25 -14 -57 -33 -72 -43 -14 -11 -29 -19 -32 -19 -3 0 -27 -13
-53 -28 -98 -58 -624 -362 -734 -425 -49 -27 -452 -260 -542 -313 -32 -19 -63
-34 -68 -34 -5 0 -9 -4 -9 -10 0 -5 -4 -10 -9 -10 -5 0 -92 -48 -193 -106
-100 -58 -199 -115 -218 -126 -181 -104 -210 -123 -218 -147 -4 -14 -7 -747
-7 -1627 0 -1277 3 -1607 13 -1626 7 -13 37 -37 67 -53 30 -17 163 -93 297
-170 133 -77 262 -152 287 -166 79 -46 215 -124 249 -145 232 -134 355 -204
363 -204 5 0 9 -4 9 -10 0 -5 4 -10 9 -10 5 0 65 -32 133 -71 67 -39 143 -83
168 -97 25 -14 59 -33 75 -43 17 -10 48 -29 70 -41 22 -12 48 -27 57 -33 9 -5
41 -23 70 -39 29 -15 60 -34 69 -42 8 -8 18 -14 21 -14 4 0 44 -22 90 -49 107
-63 155 -90 253 -146 44 -25 87 -50 95 -55 50 -31 153 -90 156 -90 2 0 49 -27
105 -60 55 -33 105 -60 109 -60 5 0 10 -5 12 -11 2 -6 19 -14 38 -18 39 -9 65
2 185 74 39 23 90 53 115 67 25 14 95 54 156 90 61 36 117 68 125 71 8 4 37
21 64 37 28 17 61 36 75 43 14 6 27 14 30 17 3 3 84 51 180 105 96 55 177 103
178 107 2 5 8 8 13 8 6 0 58 28 117 63 59 35 114 66 122 70 8 4 24 13 35 20
11 7 63 37 115 67 52 30 104 60 115 67 11 6 36 20 55 31 75 41 104 57 114 65
9 7 391 228 523 302 52 30 327 189 446 258 48 29 90 60 94 72 4 11 8 742 8
1625 1 1357 -1 1609 -13 1630 -12 22 -182 129 -219 138 -7 2 -13 8 -13 13 0 5
-5 9 -10 9 -6 0 -76 38 -156 85 -81 47 -150 85 -155 85 -5 0 -9 4 -9 9 0 5 -8
11 -17 14 -10 3 -45 22 -78 41 -33 20 -80 47 -105 61 -25 14 -61 35 -80 46
-33 20 -723 418 -793 458 -18 10 -135 78 -262 151 -126 73 -243 141 -260 150
-16 10 -86 50 -155 90 -190 110 -239 138 -305 174 -11 6 -27 16 -35 22 -47 35
-168 90 -190 86z m68 -199 c26 -16 56 -33 67 -40 11 -7 27 -16 35 -20 8 -4 48
-26 88 -50 40 -24 77 -43 82 -43 6 0 10 -4 10 -10 0 -5 4 -10 9 -10 5 0 49
-23 98 -51 48 -28 102 -60 120 -70 17 -10 50 -29 72 -43 22 -15 42 -26 44 -26
3 0 108 -60 234 -133 127 -74 236 -137 244 -141 8 -3 35 -19 60 -34 25 -15
111 -64 190 -110 79 -46 151 -88 159 -93 67 -41 172 -99 180 -99 6 0 10 -4 10
-10 0 -5 5 -10 10 -10 6 0 106 -55 223 -123 116 -68 293 -170 392 -227 99 -57
188 -110 197 -118 16 -13 15 -16 -15 -31 -18 -10 -77 -44 -132 -76 -55 -32
-113 -66 -130 -75 -16 -10 -59 -34 -95 -55 -36 -21 -83 -48 -105 -60 -22 -13
-80 -46 -130 -75 -49 -29 -109 -63 -133 -77 -23 -13 -93 -53 -154 -89 -61 -35
-115 -64 -119 -64 -5 0 -9 -4 -9 -9 0 -5 -8 -11 -17 -14 -17 -6 -76 -38 -153
-85 -19 -12 -42 -25 -50 -29 -8 -4 -55 -30 -103 -59 -48 -29 -97 -56 -107 -59
-11 -4 -20 -11 -20 -16 0 -5 -5 -9 -11 -9 -5 0 -51 -24 -102 -54 -51 -30 -108
-63 -127 -74 -97 -55 -429 -247 -529 -306 -62 -36 -115 -66 -116 -66 -2 0 -49
-27 -104 -60 -56 -33 -108 -60 -116 -60 -8 0 -49 21 -92 46 -43 26 -98 58
-123 72 -44 25 -150 86 -460 265 -85 49 -171 98 -190 109 -19 11 -48 27 -65
37 -16 10 -46 27 -65 38 -159 91 -307 177 -315 183 -5 4 -35 21 -65 38 -30 16
-196 111 -369 212 -173 100 -330 189 -348 198 -18 9 -33 19 -33 24 0 4 -5 8
-10 8 -6 0 -107 56 -225 125 -118 69 -219 125 -225 125 -19 0 -10 17 18 31 15
8 29 17 32 20 3 3 19 12 35 21 29 14 264 150 329 189 17 10 37 22 45 26 8 3
64 35 125 71 61 36 131 76 156 90 25 14 62 36 82 49 21 12 42 23 48 23 5 0 10
4 10 9 0 5 10 13 22 16 11 4 44 21 72 38 50 29 83 48 149 85 155 89 377 218
399 233 15 11 29 19 32 19 2 0 103 57 223 127 120 69 243 140 273 157 30 16
57 33 58 38 2 4 8 8 13 8 6 0 51 24 102 54 51 30 110 64 132 76 22 13 54 31
70 41 17 10 53 30 80 44 28 15 54 31 60 36 14 14 22 11 73 -18z m-2666 -1648
c35 -20 70 -40 78 -45 56 -36 172 -100 180 -100 6 0 10 -4 10 -10 0 -5 5 -10
10 -10 6 0 27 -11 48 -23 39 -25 99 -59 192 -110 30 -16 62 -36 71 -43 8 -8
18 -14 21 -14 4 0 73 -39 155 -86 143 -84 174 -102 248 -144 19 -11 51 -29 70
-40 87 -50 103 -59 153 -89 29 -17 57 -31 62 -31 6 0 10 -4 10 -10 0 -5 4 -10
9 -10 5 0 55 -27 111 -60 56 -33 103 -60 105 -60 2 0 103 -58 226 -130 122
-71 224 -130 225 -130 2 0 27 -14 56 -31 59 -36 72 -43 213 -124 55 -31 110
-64 122 -71 13 -8 25 -13 27 -12 2 2 12 -4 22 -13 11 -9 39 -27 64 -41 l45
-26 0 -1493 c-1 -1302 -3 -1494 -15 -1491 -12 3 -336 186 -538 305 -26 15 -54
31 -62 34 -8 4 -17 9 -20 12 -3 3 -14 11 -25 17 -56 30 -91 50 -95 54 -6 6
-59 35 -105 58 -16 8 -37 21 -45 27 -8 7 -37 25 -65 40 -27 14 -64 35 -81 45
-28 16 -323 186 -404 232 -48 28 -537 311 -580 336 -19 12 -59 33 -87 49 -29
15 -53 31 -53 35 0 4 -5 8 -11 8 -6 0 -64 31 -130 70 -66 38 -124 70 -129 70
-4 0 -10 3 -12 8 -1 4 -28 20 -58 36 -30 16 -62 35 -70 43 -13 12 -15 194 -15
1508 0 822 1 1495 2 1495 1 0 31 -16 65 -35z"/>
</g>
</svg>
